<?xml version="1.0" encoding="utf-8"?>
<!-- Generator: Adobe Illustrator 21.0.0, SVG Export Plug-In . SVG Version: 6.00 Build 0)  -->
<svg version="1.1" id="Capa_1" xmlns="http://www.w3.org/2000/svg" xmlns:xlink="http://www.w3.org/1999/xlink" x="0px" y="0px"
	 viewBox="0 0 24 24" style="enable-background:new 0 0 24 24;" xml:space="preserve">
<style type="text/css">
	.st0{fill:none;}
</style>
<path class="st0" d="M0,0h24v24H0V0z"/>
<path d="M17.7,17.7c0.8-0.8,2.1-0.8,2.8,0l2.8-2.8c0.8-0.8,0.8-2.1,0-2.8L12,0.7c-0.8-0.8-2-0.8-2.8,0L6.4,3.5c0.8,0.8,0.8,2,0,2.8
	s-2,0.8-2.8,0L0.7,9.2c-0.8,0.8-0.8,2.1,0,2.8L12,23.3c0.8,0.8,2.1,0.8,2.8,0l2.8-2.8C16.9,19.7,16.9,18.4,17.7,17.7z"/>
</svg>
