<?xml version="1.0" encoding="utf-8"?>
<!-- Generator: Adobe Illustrator 21.0.0, SVG Export Plug-In . SVG Version: 6.00 Build 0)  -->
<svg version="1.1" id="Capa_1" xmlns="http://www.w3.org/2000/svg" xmlns:xlink="http://www.w3.org/1999/xlink" x="0px" y="0px"
	 viewBox="0 0 24 24" style="enable-background:new 0 0 24 24;" xml:space="preserve">
<style type="text/css">
	.st0{fill:none;stroke:#040006;stroke-width:0.75;stroke-miterlimit:10;}
</style>
<path d="M19,3h-4.2c-0.4-1.2-1.5-2-2.8-2S9.6,1.8,9.2,3H5C3.9,3,3,3.9,3,5v16c0,1.1,0.9,2,2,2h14c1.1,0,2-0.9,2-2V5
	C21,3.9,20.1,3,19,3z M12,3c0.6,0,1,0.5,1,1s-0.4,1-1,1s-1-0.4-1-1S11.4,3,12,3z M19,21H5V5h2v3h10V5h2V21z"/>
<circle cx="8" cy="10.7" r="1.1"/>
<circle cx="8" cy="14.7" r="1.1"/>
<circle cx="8" cy="18.7" r="1.1"/>
<line class="st0" x1="10.8" y1="10.6" x2="17.6" y2="10.6"/>
<line class="st0" x1="10.8" y1="14.6" x2="17.6" y2="14.6"/>
<line class="st0" x1="10.8" y1="18.6" x2="17.6" y2="18.6"/>
</svg>
