<?xml version="1.0" encoding="utf-8"?>
<!-- Generator: Adobe Illustrator 21.1.0, SVG Export Plug-In . SVG Version: 6.00 Build 0)  -->
<svg version="1.1" id="Capa_1" xmlns="http://www.w3.org/2000/svg" xmlns:xlink="http://www.w3.org/1999/xlink" x="0px" y="0px"
	 viewBox="0 0 60 60" style="enable-background:new 0 0 60 60;" xml:space="preserve">
<style type="text/css">
	.st0{fill:none;stroke:#000000;stroke-width:5;stroke-miterlimit:10;}
</style>
<path d="M42.8,19.8h-6.4v-3.2c0-1.8-1.4-3.2-3.2-3.2h-6.4c-1.8,0-3.2,1.4-3.2,3.2v3.2h-6.4c-1.8,0-3.2,1.4-3.2,3.2v17.6
	c0,1.8,1.4,3.2,3.2,3.2h25.6c1.8,0,3.2-1.4,3.2-3.2V23C46,21.2,44.6,19.8,42.8,19.8z M33.2,19.8h-6.4v-3.2h6.4V19.8z"/>
<g>
	<ellipse class="st0" cx="30" cy="30" rx="26.5" ry="25.3"/>
	<line class="st0" x1="11.4" y1="11" x2="48.1" y2="47.7"/>
</g>
</svg>
