<?xml version="1.0" encoding="utf-8"?>
<!-- Generator: Adobe Illustrator 21.1.0, SVG Export Plug-In . SVG Version: 6.00 Build 0)  -->
<svg version="1.1" id="Capa_1" xmlns="http://www.w3.org/2000/svg" xmlns:xlink="http://www.w3.org/1999/xlink" x="0px" y="0px"
	 viewBox="0 0 20 19" style="enable-background:new 0 0 20 19;" xml:space="preserve">
<style type="text/css">
	.st0{fill:none;}
</style>
<path class="st0" d="M-2-2h24v24H-2V-2z"/>
<path d="M18,4h-4V2c0-1.1-0.9-2-2-2H8C6.9,0,6,0.9,6,2v2H2C0.9,4,0,4.9,0,6l0,11c0,1.1,0.9,2,2,2h16c1.1,0,2-0.9,2-2V6
	C20,4.9,19.1,4,18,4z M8,2h4v2H8V2z M18.2,15H1.8v-3.1h16.3V15z"/>
</svg>
